<?xml version="1.0" encoding="utf-8"?>
<!-- Generator: Adobe Illustrator 26.4.1, SVG Export Plug-In . SVG Version: 6.00 Build 0)  -->
<svg version="1.1" id="Слой_1" xmlns="http://www.w3.org/2000/svg" xmlns:xlink="http://www.w3.org/1999/xlink" x="0px" y="0px"
	 viewBox="0 0 455 512" style="enable-background:new 0 0 455 512;" xml:space="preserve">
<style type="text/css">
	.st0{fill:#FFFFFF;}
</style>
<path class="st0" d="M435.3,113.3L247.2,4.7c-10.8-6.3-28.6-6.3-39.4,0L19.7,113.3C8.9,119.5,0,134.9,0,147.4v217.2
	c0.8,14.6,8.3,26.6,19.7,34.1l188.1,108.6c10.8,6.3,28.6,6.3,39.4,0l188.1-108.6c12.2-8.1,19.2-20.4,19.7-34.1V147.4
	C454.5,134.2,446.7,121,435.3,113.3z M75.8,256c-0.9-148.1,197.5-213.5,283-75.9l-65.6,38c-39.6-65.5-138-42.1-141.5,37.9
	c1.1,73.7,97.8,108,141.5,37.9l65.6,38C283.4,462.7,79.6,415.7,75.8,256z M379.2,264.4h-16.9v16.9h-16.8v-16.9h-16.9v-16.9h16.9
	v-16.9h16.8v16.9h16.9V264.4z M442.3,264.4h-16.9v16.9h-16.8v-16.9h-16.9v-16.9h16.9v-16.9h16.8v16.9h16.9V264.4z"/>
</svg>
