<?xml version="1.0" encoding="utf-8"?>
<!-- Generator: Adobe Illustrator 26.4.1, SVG Export Plug-In . SVG Version: 6.00 Build 0)  -->
<svg version="1.1" id="Слой_1" xmlns="http://www.w3.org/2000/svg" xmlns:xlink="http://www.w3.org/1999/xlink" x="0px" y="0px"
	 viewBox="0 0 15 15" style="enable-background:new 0 0 15 15;" xml:space="preserve">
<style type="text/css">
	.st0{fill:#FFFFFF;}
	.st1{fill-rule:evenodd;clip-rule:evenodd;fill:#FFFFFF;}
</style>
<path class="st0" d="M10,8V7h1v1H10z"/>
<path class="st1" d="M7.5,0.4L14,4.2v6.6l-6.5,3.8L1,10.8V4.2L7.5,0.4z M6.3,4C4.5,4,3,5.5,3,7.3v0.3C3,9.5,4.5,11,6.3,11
	c0.5,0,1-0.1,1.5-0.4l0.4-0.2L7.8,9.6L7.4,9.8C7.1,9.9,6.7,10,6.3,10C5,10,4,9,4,7.7V7.3C4,6,5,5,6.3,5c0.4,0,0.7,0.1,1,0.2l0.4,0.2
	l0.4-0.9L7.8,4.4C7.4,4.1,6.8,4,6.3,4z M9,5v1H8v1h1v1H8v1h1v1h1V9h1v1h1V9h1V8h-1V7h1V6h-1V5h-1v1h-1V5H9z"/>
</svg>
