<?xml version="1.0" encoding="utf-8"?>
<!-- Generator: Adobe Illustrator 26.4.1, SVG Export Plug-In . SVG Version: 6.00 Build 0)  -->
<svg version="1.1" id="Слой_1" xmlns="http://www.w3.org/2000/svg" xmlns:xlink="http://www.w3.org/1999/xlink" x="0px" y="0px"
	 viewBox="0 0 128 128" style="enable-background:new 0 0 128 128;" xml:space="preserve">
<style type="text/css">
	.st0{fill:#FFFFFF;}
</style>
<g>
	<path class="st0" d="M127,44.9c0-4.3-3.5-7.9-7.9-7.9H8.9C4.5,37,1,40.5,1,44.9v39.3C1,88.5,4.5,92,8.9,92h110.3
		c4.3,0,7.9-3.5,7.9-7.9V44.9L127,44.9z M125,84.1c0,3.2-2.6,5.9-5.9,5.9H8.9C5.6,90,3,87.4,3,84.1V44.9C3,41.6,5.6,39,8.9,39h110.2
		c3.2,0,5.9,2.6,5.9,5.9V84.1z M30,46h-6v9.2c-1-0.2-1.7-0.3-2.6-0.3c-6.1,0-10.1,3.9-10.1,9.9c0,6.2,3.9,9.4,11,9.4
		c2.4,0,4.8-0.2,7.8-0.8L30,46L30,46z M24,69.3c-1,0.1-1.5,0.2-2.1,0.2c-3,0-4.7-1.7-4.7-4.8c0-3.2,1.8-5,4.8-5
		c0.7,0,1.1,0.1,2.1,0.3v9.3L24,69.3z M33,46h6v6h-6V46z M33,66.9c0,5.1-0.2,7-1,8.7c-0.8,1.6-2,2.7-4.6,3.9l5.5,2.6
		c2.6-1.3,3.9-2.5,4.8-4.3c1-1.9,1.4-4.2,1.4-8.9V55h-6v11.9L33,66.9z M50.5,54.9c-2.7,0-4.5,0.5-7.5,1.8v4.5c2-1.2,4.3-1.8,6.4-1.8
		c1.5,0,1.6,0.4,1.6,1.4v1.3c-6,0.6-9.9,2.5-9.9,6.6c0,3.8,1.9,5.5,6.8,5.5c2.4,0,6.1-0.3,8.1-0.6V61.7c0-2.4,0.4-3.6-0.1-4.5
		C55,55.7,53.5,54.9,50.5,54.9z M51,69.9c-1,0.2-1.6,0.3-2.5,0.3c-1.6,0-2.5-0.5-2.5-1.7c0-1.5,2-2.1,5-2.5C51,66,51,69.9,51,69.9z
		 M68.5,54.9c-2.9,0-5.5,0.4-9.5,1.3V74h6V60.1c1-0.3,2.1-0.4,2.9-0.4c2.1,0,3.1,0.8,3.1,3.1V74h6V62.5c0-2.9-0.6-4.3-1.8-5.6
		C73.9,55.6,71.5,54.9,68.5,54.9z M97.5,60l2.1-4.2C96.8,55.2,94.5,55,92,55c-8.6,0-13.4,3.8-13.4,10.4c0,5.4,3.3,8.8,8.4,8.8
		c1.5,0,2.8-0.2,3.8-0.8v0.1c0,3.7-1.8,5.3-5.6,5.3c-2.2,0-4.4-0.5-6.4-1.6v5.4c2,0.8,4.1,1.1,6.4,1.1c4.5,0,7.9-1.4,9.7-4.3
		c1.3-1.9,1.9-4.3,1.9-9.3v-1.6l-0.2-2.4L96.4,63L96,60.5v-0.6C98,60,96,59.7,97.5,60z M91,68.6V69c-1,0.2-1.4,0.4-2.2,0.4
		c-2.6,0-4-1.7-4-4.6c0-2.1,0.7-3.8,2.1-4.6c0.9-0.6,2.2-1.2,3.4-1.2H91C91,59,91,68.6,91,68.6z M108.9,54.9c-6,0-9.7,3.8-9.7,10
		c0,5.9,3.6,9.6,9.5,9.6s9.7-3.8,9.7-10C118.3,58.5,114.7,54.9,108.9,54.9z M108.8,69.8c-2.3,0-3.6-1.9-3.6-5.1
		c0-3.2,1.3-5.1,3.7-5.1c2.2,0,3.5,1.9,3.5,5.1C112.3,67.9,111,69.8,108.8,69.8z"/>
</g>
</svg>
