<?xml version="1.0" encoding="utf-8"?>
<!-- Generator: Adobe Illustrator 26.4.1, SVG Export Plug-In . SVG Version: 6.00 Build 0)  -->
<svg version="1.1" id="Слой_1" xmlns="http://www.w3.org/2000/svg" xmlns:xlink="http://www.w3.org/1999/xlink" x="0px" y="0px"
	 viewBox="0 0 512 512" style="enable-background:new 0 0 512 512;" xml:space="preserve">
<style type="text/css">
	.st0{fill:#FFFFFF;}
</style>
<path class="st0" d="M153,434.5c-53.7-31.5-99.5-107.4-123.2-174c-9.5-28.9-12.8-59.9-25-87.7c-12.8-20.2,2.2-42.2,24.3-48.6
	c9.8-1.9,27.1-11.2,6.3-4.5c-18.7,13.7-20.5-12.5-1.3-14.1c13.1-1.7,17.9-12.5,13.4-22.1c-14.1-9.2,34.1-19.3,9.9-32.9
	C32,23.2,92.6,18,77.6,48.9c-3.6,23.8,42.3-4.4,31.7,23.1c10.8,13.2,40.5,3,39.8,21.5c15.8,1.1,21.2,14.4,36,15.4
	c15.3,6.9,43.2,12.4,48.4,29.7c-15.2,12-50.5-24.9-52.2,8.5c6.4,117.7,12.5,158.2,69.3,219.9c38.3,43.3,90.9,63.7,135.2,71
	c9.6-7.3,26.4-34.5,41.4-23c0.7,12.9-29.6,26.9-1.4,25.5c16.5-5,28,12.8,41.7-3.2c12.6,14.9,52.2-9.5,43.2,20.9
	c-12.1,7.8-29.7,3.1-41.8,13.8c-19.9-10-35.8,8.9-57.9,6.5C325.9,493.3,214.9,479.8,153,434.5z M253.1,471.4
	c37.1,5.2,75.4,13.1,112.7,5.9c-16.9-7.6-34.3,3-51.1-5.4c-20.1,4.3-41.8-1.1-62.2-3.8c-23.3-10.4-48.4-17.5-70.2-31
	c-27.2-10,14.1,12.8,21.5,14.6c17,9.7-18.7-5-23.8-9c-14.3-8-16.4-6.1-1.8,2C201,458.8,229.7,468.4,253.1,471.4 M146.8,420.8
	c20.7,7.7-0.1-14.5-9.6-13.3c-4.2-7.3-16-11.9-7.7-15.8c-15,5.2-15.7-19.8-22.8-16.3c-15.9-5-6.2-22.8-25.1-33.7
	c-1.7-11.5-18.8-21.5-24.3-38.9c-2.4-8.9-19.3-34.4-8.9-10.7c8.8,22.9,24.4,42.4,37.3,62c10,18.6,21.9,38.1,40.2,49.7
	C132.2,409.8,138.1,418.9,146.8,420.8L146.8,420.8z M173.5,384.7c-11.3-6-36-9.2-18.6,4.6C166.1,393.9,194.5,396.1,173.5,384.7z
	 M192.4,408.7c24.3,6.9-20.4-15.4-6-2.5L192.4,408.7z M192.6,395.8c17.7,2.3-21-12-3.9-1.3L192.6,395.8z M254,433.5
	c16.5-9.9,11.1,23.1,28,2.8c16.7-12.2-14.4,15.1,6.2,2.2c14.9-9.9,36.8,4.7,50.7,9.5c10-0.5,19.7,8.6,29.9,3.1
	c19.7-5.3-38.5-7.9-23.3-17.3c-18,5.2-31.3-6.3-40.2-17.8c-20.2-4.7-43.6-15-53.7-32.9c-4.1-6.7,5.9,0.9-3.6-10
	c-12.2-10.8-18.3-23.1-26.4-36.3c-9.8-5.2-10.9-20.6-11.9-0.5c0.1-12.6-11.8-21.2-14.7-17.6c-0.1-12.2,12.7-6.1,3.8-15.1
	c-1.9-12.6-8.3-25.8-10.2-40c-3-6.9-0.4-21.6-10.1-6c-3.5,16.4-1.2-20.2,4.3-8.1c7.2-12.3-2.6-10.9-3-9.2c4.7-10.4,3-25.2-1.2-19.5
	c2.5-11,3.9-40.6-3.7-35.3c4.7-11.5,8.8-52.7-11.4-37c-8.2,0.1-22.4,3-29.1,6.3c21,11.6-2.1,4.2-10.7,2.3
	c-1.1,10.7-9.6,6.1-20.2,6.2c16.9,2.1-8.2,17.3-17.9,11.4c-12.6,6,10.9,21.1,0.3,25.7c1.3,7-19.3-2.5-17.7,13.7
	c-12.2-5.1-1.7,19.2,4.4,11c20.8,5.6,14.6,18.5,15.2,30.7c-3.4,7.1-16.7-16.7-3-15.6c-10.9-17.6-12-6.4-21,1.8
	c-2.1,0.6,23,11.7,7.3,17.1c13.9,2.1,14.3,14.3,17.1,22c8.3,8.7,6.6-9.6,16.6,0.8c-6.3-9.3-33.4-26.2-11.6-20.8
	c-0.1-9.4-3.9-16.9,2.7-16.7c6.6-12-6.9,29.6,8,14.3c4.1-1.8,5.2-12,12.6,1c10.8,10.6,3.9,18.3-11.3,8.6c2.7,9.2,20.4,12.5,17,27
	c3.5,12.7,8.4,8,12.7,7.3c3.4,12.3,5.3,3.3,5.4-2.6c15.4,3.3,11.8,12.4,16.6,18.8c10.6,4.8-15.2-32.5,3-11.2
	c19.2,17.3,7.3,23.3-10,21.7c14.4,1.2,14.7,14,28,14.2c11.6,6,20.7,28.4-0.7,18.9c-12.1-7.5-33.6-14.7-12.1-2
	c5.1,3.2,35.5,14.7,54.7,26.2c10.6,7.2,19.6,20.9,24.8,23.2c-11.5,5.5-34.6-4.4-17.5-7.4c-10.7-2-22.4-7.4-12.5,6
	c8.5,7.8,30.9,6.5,34.9,7.3c-3.4,7.4-9.2,8,0.1,8.6C239.4,429.5,253.1,430.4,254,433.5z M231.7,365.4c-6.8-10.8-5.2,1.6,1.1,8.2
	C242.9,385.6,235.2,366.8,231.7,365.4z M194,309.8c0,0,1.7-11.4-3.5-12.6c-5.2-1.3-2.3,0.8,1.8,9.8
	C193.3,309.1,193.9,309.9,194,309.8 M137.2,266.7c-5.2-11.5,2.5-5.3,1.3-10.2c-2.4-4.9-25.5-31.2-15-11.4c9.5,23.7-6-3-7.6-11
	c-1.8,5,3.8,21.2,7.1,26.7C131.7,274,127.8,253.6,137.2,266.7z M89.8,221.2c-13.4-11.3,4.1,5.6-1.3,5.3c-14.1-10.3-8.3-3-0.4,4.9
	C96.8,244.3,103.9,223.8,89.8,221.2z M96.7,223.2c25.3,7-26.9-24.4-3.8-3.8L96.7,223.2z M166.8,253.1c-7.3,0.1,3-15.8-6.7-12.7
	c-3.4-24.8-10.8,11.5-0.8,17.5C162.4,266.8,165.6,263.2,166.8,253.1z M107,217.8c33.7,15.6-24.4-25.7-9.5-5.2
	C99.2,216.5,103.5,216.8,107,217.8z M110.9,209.7c25.5,10.6-2.3-6.9-11.1-5C102,208,108,206.6,110.9,209.7z M114.3,200.1
	c8.3-1.7-1.1-4.3-6.1-8.3c-11.5-17.2,1.7,1.4-1.9,6.7C111.1,203.3,127.3,211.7,114.3,200.1z M172.9,173.4c-3.4,17.9-6.8,10.4-2-2.9
	c-1.2-17.1-11.6,10.5-7,18.6C171.6,201.2,179.2,159.3,172.9,173.4z M183,386.4c13.2,3.4,13.1-2,1.2-3.7c-6.4-6-26.6-12.3-8.5-0.7
	C176.9,385.1,180.7,385,183,386.4z M136.3,355.4c7.3,5.4,27.3,15.3,10.3,2.1c5.7-6.7-11-10.2-5.4-14.6c-14.1-8.6-11.1-7.9-1.2-7.6
	c-16.9-7.6,2.4-7,1.5-10.9c-6.5-1.3-32.4-11.5-17.2,0.8c-15.5-7.9-3.7,2.9-8.4,1.8c-15.8-4.3,14.1,12.1-2.5,8
	c9.1,7.2,24.4,18.4,3.8,7.6C114.5,346.5,132,352.4,136.3,355.4z M300.8,451.9c6.9-6.7,0.3,10.7,11.5-1.6c0.1-8.9-0.3-14.1-12.9-3.3
	C296,448.8,294.4,457,300.8,451.9z M187.1,378.9c7.7,6.9,35.5,5,9.4,0.8C192.6,374,171.9,375.4,187.1,378.9z M59.8,293.4
	c-11.2-16-7-23.2-17.8-36.3c-2-10-18.6-32.7-8.5-8.6C42.7,262.5,45.4,284.3,59.8,293.4z M392.3,451.4c10.9-2.2,35.8,5.6,39.8-2.9
	c-13.3-0.3-45.9-9.4-47.4,2.2L392.3,451.4z M20.5,175.5c-2-11.4-4.4-31.4,14.6-24.7c-25.4,5,17.6,31.6,12.2,10.6
	c10.7,0.5,20.9-6.3,15.3,4.1c21-2.3,35.6-20.6,56-18c15.8-2.1,33.2-3.7,50.2-10.1c14-1,27.5-16.1,19.8-25.1
	c-19.1-1.6-39.2,0.8-60.3,5c-23.4,4.9-44.7,14.1-68.4,18.1c-23.1,3.1,4.6,8.5-2,9.7c-12,4.2,14.3,7-1.6,11.4
	c-9.8-1.9-20-5.2-15.8-15.6c-22.1,2.9-41.5,12-24,34.5L20.5,175.5z M79.5,150.9c19.3,13.2-3.3-21.6-8.5-2.5
	C73.5,147.8,77.2,149.2,79.5,150.9z M85,142.1c18.2,1.8-2.8-11.6-3.5-3.2L85,142.1z M115.6,130.9c26.9-5.1-9.9-8.6-17.8,0.9
	C102.9,134.2,108.4,125.5,115.6,130.9z M161.8,121.8c17-2.6,2.7-10.4-2.3,2.6C161.3,128.5,162.2,123.2,161.8,121.8z M70.2,191.3
	c9.6-0.7,15.1-10.6-1.9-10c-26.2-2.7,23.1,9-3.4,5.6C61.4,189.3,70,192,70.2,191.3z M56.7,115.3c17.2-5.8,38.9-10.8,48.5,3.3
	c-7.3-10.3-3.1-20.1,4.7-5.6c11,14.7,15-3.8,9.4-11.6c5.3,8.4,25.1,26.8,5.5,0.6c13-15.7-26.1,2.1-35,1.9
	C85.6,105.8,45.7,114.1,56.7,115.3z M66.8,96c9.8-7.4,33.9,4.4,18.4-7.3C83.7,87.3,51.4,97.6,66.8,96z M102.5,97.5
	c11.5,0.3-4.9-15.4,8.7-8.3c-2.2-7.3-15.9-8.7-22.6-11.6C84.9,84.3,96.3,97.6,102.5,97.5z M60.4,47.3c-13-17,24.5,2.9,11.2-14.9
	C60.5,23.5,49.8,42.3,60.4,47.3z M227.4,137.2c6-10.6-24.6-14.3-4-3.7C225.2,134.1,224.8,137.9,227.4,137.2z"/>
</svg>
