<?xml version="1.0" encoding="utf-8"?>
<!-- Generator: Adobe Illustrator 26.4.1, SVG Export Plug-In . SVG Version: 6.00 Build 0)  -->
<svg version="1.1" id="Layer_1" xmlns="http://www.w3.org/2000/svg" xmlns:xlink="http://www.w3.org/1999/xlink" x="0px" y="0px"
	 viewBox="0 0 30 30" style="enable-background:new 0 0 30 30;" xml:space="preserve">
<style type="text/css">
	.st0{fill:#FFFFFF;}
</style>
<g>
	<g>
		<path class="st0" d="M11.5,23.4l1.3-0.8L11.4,23c-1.1,0.3-1.6,0.7-1.5,1.2c0.1,0.9,2.2,1.6,4.8,1.6c1.3,0,3.3-0.2,5.3-1l0.4-0.2
			l-0.4-0.2c-0.9-0.4-1.6-0.8-1.6-0.8l-0.1,0l-0.1,0c-1.6,0.3-2.6,0.4-3.6,0.4c-0.7,0-1.4,0-2.4-0.2c-0.9-0.1-0.9-0.3-0.9-0.3
			C11.3,23.6,11.4,23.4,11.5,23.4z"/>
		<path class="st0" d="M13.9,28.6c5.7,0,10.7-1.1,11-2.4c0.1-0.2,0-0.6-0.7-0.9L23,24.8l1,0.9c0,0,0.2,0.1,0.1,0.3
			c0,0.1-0.2,0.3-1,0.6c-1.7,0.5-5.4,0.9-9.2,0.9c-3.5,0-6.1-0.3-7.3-0.8c-0.1-0.1-0.2-0.1-0.2-0.1c0-0.2,0.9-0.6,1.7-0.7
			c0.5-0.1,0.8-0.1,0.9-0.1l0.7,0l-0.6-0.4c-0.2-0.1-0.5-0.2-0.9-0.2c-1.4,0-4,0.9-4.1,1.9c-0.1,0.7,1.2,0.9,1.6,1
			C8.6,28.4,11.2,28.6,13.9,28.6L13.9,28.6z"/>
		<path class="st0" d="M11.8,19.4l-1.1,0.4c-1.2,0.4-1.8,0.9-1.7,1.4c0.2,1,2.7,1.4,5.1,1.4c2.1,0,4.4-0.3,6.3-0.9l0.6-0.2l-0.6-0.2
			c-0.7-0.2-1.1-0.7-1.1-0.7l-0.1-0.1l-0.1,0c-1.9,0.4-3.4,0.5-4.9,0.5c-0.8,0-1.7-0.1-2.8-0.2c-0.8-0.1-0.9-0.3-0.9-0.3
			c0-0.1,0.2-0.3,0.3-0.5L11.8,19.4c0.4,0,0.7,0,0.9,0c2.9,0,5.6-0.3,7.5-0.8l0.1,0c0.5-0.4,1.3-0.7,1.3-0.7l1.6-0.7l-1.7,0.3
			c0,0-2.2,0.4-4.4,0.6c-0.5,0-1,0.1-1.5,0.1l0.8-0.4c0.1,0,2-1.1,2.4-2.6c0.2-0.6,0-1.2-0.4-1.8l-0.2-0.3c-0.6-0.9-1.1-1.5-0.9-2.3
			c0.2-1,1.7-2.3,4.7-4.1l1.2-0.7l-1.3,0.3c-0.2,0.1-5.6,1.4-6.5,4.4c-0.4,1.2,0,2.5,1.2,3.9c0.4,0.4,0.5,0.9,0.5,1.3
			c-0.1,0.9-0.8,1.5-0.8,1.5l-0.9,0.8c-2.1,0.1-4.1,0.1-5.1,0c-0.9-0.1-1-0.2-1-0.2c0.1-0.2,1.4-0.7,2.9-1.1l1.2-0.3L12,16.5
			c0,0-0.1,0-0.2,0c-0.7,0-2.4,0.1-4.5,1.1c-0.2,0.1-0.7,0.4-0.6,0.8C6.8,19.2,10.1,19.4,11.8,19.4z"/>
		<path class="st0" d="M21.8,16.9l-0.3,0.5l0.6-0.2c0,0,0.2-0.1,0.6-0.2c0.7-0.1,1.7,0.3,1.9,1.1c0.1,0.5,0.1,2-3.2,3.7l-0.1,0
			l0,0.1c0,0,0,0,0,0.1L20,22.7l1.4-0.4c3.8-1,4.9-2.8,4.8-4.1c-0.1-1.2-1.2-2-2.6-2c-0.4,0-0.8,0.1-1.2,0.2
			C22,16.6,21.8,16.9,21.8,16.9z"/>
		<path class="st0" d="M15.1,16.8l0.7,0.6l-0.4-0.8c-0.3-0.6-0.6-1.1-1-1.7c-1.3-1.9-2.6-3.6,1-6.4C17.8,6.6,19,4.8,19.1,3
			c0.1-1.6-0.8-2.5-0.8-2.5L17.8,0L18,0.7c0.8,3.1-1.3,4.7-3.5,6.4c-1.1,0.8-2.1,1.7-2.8,2.7C10.2,12,12.5,14.4,15.1,16.8z"/>
		<path class="st0" d="M25.8,27c0,0-0.5,0.9-4.2,1.6c-2.2,0.4-4.7,0.6-7.3,0.6c-2.2,0-4.3-0.1-5.9-0.4l-0.7-0.1l0.6,0.5
			c0.1,0.1,0.8,0.6,4.2,0.8c1,0.1,2,0.1,3,0.1l0,0c2.5,0,10.5-0.2,10.7-2.9l0.1-1L25.8,27z"/>
	</g>
</g>
</svg>
