<?xml version="1.0" encoding="utf-8"?>
<!-- Generator: Adobe Illustrator 26.4.1, SVG Export Plug-In . SVG Version: 6.00 Build 0)  -->
<svg version="1.1" id="Слой_1" xmlns="http://www.w3.org/2000/svg" xmlns:xlink="http://www.w3.org/1999/xlink" x="0px" y="0px"
	 viewBox="0 0 32 32" style="enable-background:new 0 0 32 32;" xml:space="preserve">
<style type="text/css">
	.st0{fill:#FFFFFF;}
</style>
<path class="st0" d="M22.8,0c-1.2,0-2.5,0.2-3.7,0.5l-0.1,0c-0.8-0.1-1.5-0.2-2.3-0.2c-1.6,0-2.9,0.4-4,1c-1.1-0.4-3.3-1-5.6-0.9
	C5.5,0.5,3.7,1,2.4,2.4C1.1,3.8,0.4,6,0.6,8.9c0,0.8,0.3,2.1,0.7,3.8c0.4,1.7,0.9,3.7,1.6,5.5c0.7,1.8,1.4,3.5,2.6,4.6
	c0.6,0.6,1.4,1,2.3,1c0.7,0,1.2-0.3,1.8-0.7c0.2,0.3,0.5,0.5,0.8,0.6c0.3,0.2,0.6,0.3,0.9,0.4c0.6,0.1,1.5,0.3,2.6,0.1
	c0.4-0.1,0.8-0.2,1.2-0.4c0,0.4,0,0.9,0,1.3c0.1,1.4,0.1,2.7,0.5,3.8c0.1,0.2,0.3,1.1,1,2c0.7,0.8,2.1,1.3,3.7,1
	c1.1-0.2,2.6-0.7,3.5-2c0.9-1.3,1.4-3.3,1.5-6.4c0-0.2,0-0.3,0.1-0.4l0.2,0h0c1.2,0.1,2.5-0.1,3.6-0.6c1-0.4,1.7-0.9,2.2-1.7
	c0.1-0.2,0.3-0.4,0.3-0.9c0-0.4-0.2-1.1-0.6-1.4c-0.8-0.6-1.3-0.4-1.8-0.3c-0.5,0.1-1.1,0.2-1.6,0.2c1.5-2.6,2.6-5.4,3.3-7.8
	c0.4-1.4,0.6-2.8,0.6-3.9c0-1.2-0.1-2.2-0.8-3.1C28.5,0.8,25.4,0,23.1,0C23,0,22.9,0,22.8,0L22.8,0z M22.8,0.9
	c2.2,0,5.1,0.6,7.1,3.2c0.5,0.6,0.6,1.4,0.6,2.5s-0.2,2.3-0.6,3.7c-0.7,2.7-2,5.8-3.9,8.7c0.1,0,0.1,0.1,0.2,0.1
	c0.4,0.2,1.3,0.3,3-0.1c0.4-0.1,0.8-0.2,1.1,0.1c0.2,0.1,0.3,0.3,0.2,0.6c0,0.2-0.1,0.3-0.2,0.4c-0.3,0.5-1,1-1.9,1.4
	c-0.8,0.4-1.9,0.5-2.8,0.5c-0.5,0-0.9,0-1.3-0.2l0,0c-0.1,1.4-0.5,4.2-0.7,5.5c-0.2,1-0.5,1.8-1.1,2.5c-0.6,0.6-1.4,1-2.5,1.2
	c-1.4,0.3-2.4,0-3-0.6s-0.9-1.3-1.1-1.7c-0.1-0.3-0.2-0.7-0.2-1.2c-0.1-0.5-0.1-1.2-0.1-1.9c0-1.1-0.1-2.2,0-3.4
	c-0.6,0.5-1.3,0.9-2.1,1c-0.9,0.2-1.7,0-2.2-0.1c-0.2-0.1-0.5-0.2-0.7-0.3c-0.2-0.1-0.4-0.3-0.6-0.5c-0.1-0.2-0.1-0.3-0.1-0.5
	c0-0.2,0.1-0.3,0.3-0.4c0.3-0.2,0.6-0.3,1.1-0.4c1-0.2,1.3-0.3,1.5-0.5c0.2-0.1,0.4-0.4,0.7-0.8c0,0,0,0,0-0.1
	c-0.6,0-1.2-0.2-1.8-0.5c-0.2,0.2-1.2,1.3-2.5,2.8c-0.5,0.6-1.1,1-1.7,1c-0.6,0-1.2-0.3-1.6-0.7c-0.9-0.9-1.7-2.5-2.3-4.3
	s-1.2-3.7-1.6-5.4c-0.4-1.7-0.6-3-0.6-3.7C1.3,6,1.9,4.2,3,3s2.6-1.6,4.1-1.7c2.7-0.2,5.2,0.8,5.7,1c1-0.7,2.3-1.1,3.9-1.1
	c0.8,0,1.5,0.1,2.2,0.3l0,0c0.3-0.1,0.7-0.2,1-0.3C20.9,1,21.8,0.9,22.8,0.9L22.8,0.9z M23,1.7h-0.2c-0.8,0-1.5,0.1-2.3,0.3
	c1.7,0.7,2.9,1.9,3.8,3c0.6,0.8,1.1,1.6,1.5,2.6c0.2,0.4,0.3,0.7,0.3,0.9c0,0.1,0,0.2,0.1,0.3c0,0.1,0,0.1,0,0.2c0,0,0,0,0,0
	c0,1.2-0.2,2-0.3,3.1c0,0.8,0.2,1.8,0.2,2.8c0,1-0.1,2-0.7,3.1c0.1,0.1,0.1,0.1,0.2,0.2c1.7-2.6,2.9-5.5,3.5-8
	c0.3-1.3,0.5-2.6,0.5-3.5c0-1-0.2-1.7-0.4-1.9C27.4,2.3,25,1.8,23,1.7L23,1.7z M16.6,2.1c-1.6,0-2.7,0.5-3.6,1.2
	C12.1,4,11.5,5,11.2,6.1c-0.5,1.2-0.6,2.4-0.7,3.2l0,0C11,9,11.6,8.7,12.3,8.6c0.7-0.2,1.4-0.2,2,0.1c0.7,0.2,1.2,0.8,1.4,1.7
	c0.9,4.3-0.3,6-0.7,7.2c-0.2,0.4-0.3,0.9-0.4,1.3c0.1,0,0.1,0,0.2,0c0.3,0,0.6,0.1,0.7,0.1c0.5,0.2,0.8,0.6,0.9,1
	c0,0.1,0.1,0.2,0.1,0.4c0,0.1,0,0.1,0,0.2c-0.1,1.7,0,3.3,0,5c0,0.7,0.1,1.3,0.1,1.8c0.1,0.5,0.1,0.9,0.2,1c0.2,0.4,0.4,1,0.9,1.4
	c0.4,0.4,1.1,0.6,2.3,0.4c1-0.2,1.7-0.5,2.1-1c0.4-0.4,0.7-1.1,0.8-2c0.2-1.4,0.7-5.5,0.8-6.2c0-0.6,0.1-1,0.2-1.4
	c0.2-0.3,0.5-0.6,0.7-0.7c0.1-0.1,0.2-0.1,0.3-0.1c-0.1-0.1-0.2-0.3-0.3-0.4C24.3,18,24,17.5,23.8,17c-0.1-0.2-0.2-0.4-0.3-0.6
	c-0.2-0.3-0.4-0.7-0.6-1.2c-0.5-0.9-1-2-1.2-3.1c-0.3-1.1-0.3-2.2,0.4-2.9c0.6-0.7,1.7-1,3.2-0.8c0-0.1-0.1-0.3-0.2-0.4
	c-0.4-0.8-0.8-1.6-1.4-2.4c-1.3-1.7-3.5-3.4-6.9-3.5L16.6,2.1z M7.7,2.2c-0.2,0-0.3,0-0.5,0C5.9,2.3,4.6,2.6,3.7,3.6
	c-0.9,1-1.5,2.5-1.4,5.2c0,0.5,0.2,1.9,0.6,3.5c0.4,1.7,0.9,3.6,1.5,5.3c0.6,1.7,1.4,3.2,2.1,3.9c0.4,0.3,0.7,0.5,1,0.5
	c0.3,0,0.6-0.2,1.1-0.7c0.8-0.9,1.6-1.8,2.4-2.7c-1.2-1-1.8-2.6-1.6-4.2c0.1-1,0.2-1.9,0.1-2.6c0-0.7-0.1-1.2-0.1-1.5c0,0,0,0,0,0v0
	l0,0c0-1.5,0.3-3.1,0.8-4.5c0.4-1,0.9-2,1.8-2.8c-0.8-0.3-2.3-0.7-3.8-0.8C8.1,2.2,7.9,2.2,7.7,2.2L7.7,2.2z M24.3,9.2
	c-0.9,0-1.4,0.3-1.7,0.6c-0.4,0.4-0.4,1.2-0.2,2.1c0.2,0.9,0.7,2,1.2,2.9c0.2,0.4,0.4,0.8,0.6,1.1c0.2,0.3,0.3,0.5,0.4,0.7
	c0.1,0.2,0.2,0.3,0.2,0.5c0.3-0.7,0.4-1.5,0.4-2.2c0-0.9-0.3-1.9-0.2-2.9c0-1.1,0.3-1.9,0.3-2.8C24.9,9.2,24.6,9.2,24.3,9.2
	L24.3,9.2z M13.3,9.4c-0.3,0-0.6,0-0.8,0.1c-0.5,0.1-1.1,0.3-1.5,0.6c-0.2,0.1-0.3,0.2-0.5,0.3l0,0c0,0.2,0,0.7,0.1,1.4
	c0,0.8,0,1.7-0.1,2.8c-0.3,2.3,1.3,4.2,3.3,4.2c0.1-0.5,0.3-0.9,0.5-1.4c0.5-1.5,1.6-2.5,0.7-6.7c-0.1-0.7-0.4-1-0.8-1.1
	C13.8,9.4,13.5,9.3,13.3,9.4L13.3,9.4z M23.8,9.6L23.8,9.6c0.2,0,0.2,0,0.3,0c0.1,0,0.1,0,0.2,0.1c0.1,0,0.1,0.1,0.1,0.1v0
	c0,0.1,0,0.1,0,0.2c0,0.1-0.1,0.1-0.1,0.2c-0.1,0.2-0.3,0.3-0.5,0.3c-0.2,0-0.4,0-0.5-0.1c-0.1,0-0.1-0.1-0.2-0.2
	c0,0-0.1-0.1-0.1-0.2c0-0.1,0-0.1,0.1-0.2c0,0,0.1-0.1,0.2-0.1c0.1-0.1,0.3-0.1,0.5-0.2C23.7,9.6,23.8,9.6,23.8,9.6L23.8,9.6z
	 M13.4,9.8c0.1,0,0.1,0,0.2,0c0.2,0,0.4,0.1,0.5,0.2c0.1,0,0.1,0.1,0.2,0.1c0.1,0.1,0.1,0.1,0.1,0.2c0,0.1,0,0.2-0.1,0.2
	c-0.1,0.1-0.1,0.1-0.2,0.2c-0.2,0.1-0.4,0.2-0.6,0.2c-0.2,0-0.4-0.1-0.6-0.3c-0.1-0.1-0.1-0.1-0.2-0.2c0-0.1-0.1-0.2-0.1-0.2
	c0-0.1,0.1-0.2,0.3-0.3C13.1,9.9,13.3,9.9,13.4,9.8L13.4,9.8z M25.5,19.6L25.5,19.6c-0.2,0.1-0.4,0.1-0.5,0.2
	c-0.1,0.1-0.3,0.2-0.3,0.3c-0.1,0.2-0.2,0.4-0.1,0.9c0.1,0,0.1,0.1,0.2,0.1c0.2,0.1,0.6,0.1,1,0.1c0.8,0,1.9-0.2,2.5-0.5
	c0.5-0.2,0.9-0.5,1.3-0.8c-1.9,0.4-2.9,0.3-3.6,0C25.8,19.8,25.6,19.8,25.5,19.6L25.5,19.6z M14.8,19.8L14.8,19.8
	c-0.1,0-0.2,0-0.4,0.3c-0.5,0.5-0.6,0.8-1,1.2c-0.4,0.3-0.9,0.5-1.9,0.7C11.2,21.9,11,22,10.9,22c0,0,0,0,0.1,0.1
	c0.1,0.1,0.3,0.2,0.5,0.2c0.4,0.1,1.1,0.2,1.9,0.1c0.7-0.1,1.5-0.5,2.1-1.4c0.1-0.2,0.1-0.4,0-0.6c-0.1-0.2-0.3-0.5-0.4-0.5
	C15,19.8,14.9,19.8,14.8,19.8L14.8,19.8z"/>
</svg>
