<?xml version="1.0" encoding="utf-8"?>
<!-- Generator: Adobe Illustrator 26.4.1, SVG Export Plug-In . SVG Version: 6.00 Build 0)  -->
<svg version="1.1" id="Layer_1" xmlns="http://www.w3.org/2000/svg" xmlns:xlink="http://www.w3.org/1999/xlink" x="0px" y="0px"
	 viewBox="0 0 1024 1024" style="enable-background:new 0 0 1024 1024;" xml:space="preserve">
<style type="text/css">
	.st0{fill-rule:evenodd;clip-rule:evenodd;fill:#FFFFFF;}
</style>
<g>
	<g>
		<path class="st0" d="M511.8,757.3c0,10.6,0,20.2,0,30.8c80.9,0,161.4,0,241.8,0c0,37.6,0,74.1,0,110.7c0,0.3-0.2,0.7-0.2,1
			c-5.3,31-22.6,54.1-47.6,72c-31,22.1-66.6,32.8-103,41.3c-85.2,19.8-168.3,12.9-248.6-21.2c-19.1-8.1-36.9-20.8-52.9-34.3
			c-22.8-19.3-33.9-45.6-33.9-75.8c-0.1-78-0.8-156.1,0.2-234.1c0.9-70.2,55.4-122.8,125.5-123c78-0.2,156-1.1,233.9,0.2
			c78.8,1.3,145.8-58.8,156.6-133.6c1.3-8.6,1.4-17.4,1.4-26.2c0.2-30.6,0.1-61.2,0.1-91.8c0-3.6,0-7.2,0-11.8c12.5,0,23.9,0,35.2,0
			c18.1,0,36.3,0.1,54.4,0c43.2-0.4,75.4,18.4,97.4,55.3c16.1,26.9,24.1,56.7,30.9,86.9c10.5,46.5,16.8,93.3,13.4,141
			c-4.1,56.2-20.3,108.8-47.1,158.1c-20.6,37.8-53.3,54.9-96.2,54.7c-116-0.4-231.9-0.1-347.9-0.1
			C521.1,757.3,516.8,757.3,511.8,757.3z M649,850.4c-25.7-0.3-46,19.8-46.2,45.6c-0.2,25.8,19.8,46.9,44.9,47.3
			c25,0.4,46-20.4,46.3-46C694.2,871.3,674.4,850.7,649,850.4z"/>
		<path class="st0" d="M510.6,261.3c0-10.5,0-20.1,0-30.8c-81.1,0-161.5,0-242.2,0c-0.5-3.1-1-5-1-6.9c0.1-34.3-0.5-68.7,0.7-102.9
			c2-54.6,23.9-84.2,76.6-98.9c31.8-8.9,64.9-14.7,97.8-18.1c64.8-6.7,129.6-4.2,193.8,7.4c37.2,6.7,69,24,92.9,53.9
			c16.7,20.9,25.5,44.8,25.5,71.7c0,77.7,0.4,155.4-0.1,233.1c-0.4,71.2-53.8,123.7-125.1,123.8c-78.7,0.1-157.3,0-236,0.1
			c-76.8,0.1-140,52.1-154.4,127.5c-1.9,9.8-2.2,20.1-2.3,30.1c-0.3,31.3-0.1,62.6-0.1,93.9c0,3.6,0,7.2,0,12.1
			c-7.5,0-13.8,0.1-20.1,0c-24.9-0.2-49.8,0.4-74.6-0.9c-39-2.2-68.3-21.8-89.9-53.8c-18.1-26.7-26-57.2-33.4-88
			c-19.1-79.7-15.5-158.7,6.7-237.2c20.7-73.1,76.8-115.9,152.9-116c106.5-0.2,213.1,0,319.6,0C502.1,261.3,506.1,261.3,510.6,261.3
			z M373.4,75.4c-25.3,0.2-45.2,20.9-45.1,46.8c0.1,25.7,20.7,46.3,46,46c25.1-0.2,45.4-21.3,45.2-47
			C419.4,95.7,398.8,75.2,373.4,75.4z"/>
	</g>
</g>
</svg>
