<?xml version="1.0" encoding="utf-8"?>
<!-- Generator: Adobe Illustrator 26.4.1, SVG Export Plug-In . SVG Version: 6.00 Build 0)  -->
<svg version="1.1" id="Слой_1" xmlns="http://www.w3.org/2000/svg" xmlns:xlink="http://www.w3.org/1999/xlink" x="0px" y="0px"
	 viewBox="0 0 24 24" style="enable-background:new 0 0 24 24;" xml:space="preserve">
<style type="text/css">
	.st0{fill:#FFFFFF;}
</style>
<path class="st0" d="M21.9,1.4c-0.3,0.8-0.8,1.6-1.3,2.2C16-1.1,8.4-1.2,3.6,3.4s-4.9,12.2-0.3,16.9c0.2,0.2,0.3,0.3,0.5,0.5
	l0.4,0.4c5,4.3,12.6,3.6,16.8-1.4c1.6-1.9,2.6-4.3,2.8-6.9C24.3,9.9,23.4,6,21.9,1.4L21.9,1.4z M5.6,20.9c-0.4,0.4-1,0.5-1.4,0.1
	S3.6,20,4,19.6c0.4-0.4,1-0.5,1.4-0.1C5.9,19.8,5.9,20.4,5.6,20.9z M21.8,17.3c-2.9,3.9-9.3,2.6-13.3,2.8c0,0-0.7,0-1.4,0.1
	c0,0,0.3-0.1,0.6-0.2c2.8-1,4.2-1.2,5.9-2.1c3.2-1.7,6.5-5.3,7.1-9c-1.2,3.6-5,6.7-8.4,8c-2.3,0.9-6.6,1.7-6.6,1.7l-0.2-0.1
	c-2.9-1.4-3-7.6,2.3-9.6c2.3-0.9,4.5-0.4,7-1c2.6-0.6,5.7-2.6,6.9-5.2C23.1,6.8,24.8,13.3,21.8,17.3z"/>
</svg>
