<?xml version="1.0" encoding="utf-8"?>
<!-- Generator: Adobe Illustrator 26.4.1, SVG Export Plug-In . SVG Version: 6.00 Build 0)  -->
<svg version="1.1" id="swift" xmlns="http://www.w3.org/2000/svg" xmlns:xlink="http://www.w3.org/1999/xlink" x="0px" y="0px"
	 viewBox="0 0 232 210.7" style="enable-background:new 0 0 232 210.7;" xml:space="preserve">
<style type="text/css">
	.st0{fill:#FFFFFF;}
</style>
<path class="st0" d="M215.1,148.8c15.4-47.9-12-109.7-66.1-148.1c-1.6-1.1-3.7-1-5.1,0.4c-1.4,1.3-1.6,3.5-0.6,5.1
	c23.4,35.6,29.4,71.6,16.8,99.6C122.7,80.5,55,21.5,54.3,20.9c-1.5-1.3-3.7-1.3-5.3,0c-1.5,1.3-1.8,3.5-0.7,5.2
	c1.1,1.6,20,30.3,40.4,55.3C74,70.9,57.7,57.6,28.9,33.5c-1.5-1.3-3.7-1.2-5.2,0c-1.5,1.3-1.8,3.4-0.8,5.1
	C51.5,85.5,99.1,129,122.5,149c-54,24.2-115.7-15.6-116.3-16c-1.6-1-3.7-0.8-5,0.5c-1.3,1.3-1.6,3.4-0.5,5
	c11.8,17.9,28,31.2,48.7,45.7c27.5,19.3,55,26.6,78.3,26.6c24.1,0,43.9-7.8,55-18.1c0-0.1,5-5.2,16-2c8.8,2.6,20.8,12.2,25,16.5
	c1,1,2.5,1.5,3.9,1.1c1.4-0.4,2.5-1.5,2.8-3c1.1-4.6,1.6-9.3,1.6-14.1C232,175.4,226,160.3,215.1,148.8z M223.7,196.6
	c-6.1-5-15.1-11.3-22.9-13.6c-16-4.7-23.9,3.9-23.9,4c-19.5,18.1-70.6,27.2-123-9.5c-13.6-9.5-25.2-18.5-34.7-28.6
	c6.7,3.2,15.2,6.6,24.7,9.5c32.7,9.8,63,8.1,87.7-5.2c1.2-0.6,2-1.8,2.1-3.1c0.1-1.3-0.4-2.6-1.4-3.5
	c-17.5-14.6-56.7-49.1-86.6-88.9c29.1,24,42.7,34,64.2,46.9c1.7,1,4,0.6,5.2-1c1.2-1.6,1.1-3.9-0.4-5.3
	c-13.8-13.4-30-34.6-42.1-51.3c24.8,20.9,63.3,52.6,87,68c0.9,0.6,2.1,0.8,3.2,0.5c1.1-0.3,2-1,2.5-2c13.9-26.4,12.1-59.6-4.6-93.3
	c41.1,36.9,60.3,88.3,46.1,128.2c-0.5,1.5-0.1,3.1,1,4.2c10.5,10.2,16.2,24,16.2,38.6C224,193.1,223.9,194.9,223.7,196.6z"/>
</svg>
